<svg width="25" height="25" viewBox="0 0 25 25" fill="none" xmlns="http://www.w3.org/2000/svg">
<path fill-rule="evenodd" clip-rule="evenodd" d="M6.25 12.5C6.25 12.2928 6.33231 12.0941 6.47882 11.9476C6.62534 11.8011 6.82405 11.7188 7.03125 11.7188H16.0828L12.7281 8.36563C12.5814 8.21893 12.499 8.01997 12.499 7.8125C12.499 7.60504 12.5814 7.40608 12.7281 7.25938C12.8748 7.11268 13.0738 7.03027 13.2812 7.03027C13.4887 7.03027 13.6877 7.11268 13.8344 7.25938L18.5219 11.9469C18.5946 12.0194 18.6524 12.1057 18.6917 12.2006C18.7311 12.2955 18.7514 12.3972 18.7514 12.5C18.7514 12.6028 18.7311 12.7045 18.6917 12.7994C18.6524 12.8943 18.5946 12.9806 18.5219 13.0531L13.8344 17.7406C13.6877 17.8873 13.4887 17.9697 13.2812 17.9697C13.0738 17.9697 12.8748 17.8873 12.7281 17.7406C12.5814 17.5939 12.499 17.395 12.499 17.1875C12.499 16.98 12.5814 16.7811 12.7281 16.6344L16.0828 13.2813H7.03125C6.82405 13.2813 6.62534 13.1989 6.47882 13.0524C6.33231 12.9059 6.25 12.7072 6.25 12.5Z" fill="#212529"/>
</svg>
