<svg width="25" height="25" viewBox="0 0 25 25" fill="none" xmlns="http://www.w3.org/2000/svg">
<path d="M1.17644 3.80673C0.622899 4.24815 0.235653 4.86444 0.078125 5.55469L12.5 13.1469L24.9219 5.55469C24.7643 4.86444 24.3771 4.24815 23.8236 3.80673C23.27 3.36532 22.583 3.12495 21.875 3.125H3.125C2.41701 3.12495 1.72998 3.36532 1.17644 3.80673Z" fill="#00134D"/>
<path d="M0 18.4391V7.33906L9.06719 12.8797L0 18.4391Z" fill="#00134D"/>
<path d="M0.298437 20.0875L10.5641 13.7969L12.5 14.9781L14.4359 13.7953L15.0094 14.1469C14.2227 14.8062 13.5903 15.63 13.1567 16.5604C12.7231 17.4907 12.4989 18.5048 12.5 19.5312C12.4991 20.3296 12.6344 21.1222 12.9 21.875H3.125C2.53292 21.8754 1.9529 21.7076 1.45248 21.3912C0.952065 21.0747 0.551849 20.6226 0.298437 20.0875Z" fill="#00134D"/>
<path d="M25 15.1109V7.33906L15.9328 12.8797L16.4609 13.2031C17.4179 12.7391 18.4677 12.4986 19.5312 12.5C20.58 12.4989 21.6156 12.7329 22.562 13.1847C23.5084 13.6365 24.3415 14.2947 25 15.1109Z" fill="#00134D"/>
<path fill-rule="evenodd" clip-rule="evenodd" d="M23.3982 23.3982C24.4238 22.3727 25 20.9817 25 19.5312C25 18.0808 24.4238 16.6898 23.3982 15.6643C22.3727 14.6387 20.9817 14.0625 19.5312 14.0625C18.0808 14.0625 16.6898 14.6387 15.6643 15.6643C14.6387 16.6898 14.0625 18.0808 14.0625 19.5312C14.0625 20.9817 14.6387 22.3727 15.6643 23.3982C16.6898 24.4238 18.0808 25 19.5312 25C20.9817 25 22.3727 24.4238 23.3982 23.3982ZM21.5989 16.8051C21.7004 16.8202 21.7979 16.8551 21.8859 16.9078C21.974 16.9605 22.0508 17.0301 22.1119 17.1125C22.1731 17.1949 22.2174 17.2885 22.2424 17.3881C22.2673 17.4876 22.2724 17.5911 22.2574 17.6926C22.2423 17.7941 22.2074 17.8917 22.1547 17.9797L20.0687 21.4578C19.9771 21.6106 19.8518 21.7405 19.7024 21.8376C19.5529 21.9347 19.3834 21.9964 19.2065 22.0181C19.0296 22.0398 18.8501 22.0209 18.6817 21.9628C18.5132 21.9047 18.3603 21.8089 18.2344 21.6828L17.025 20.475C16.8783 20.3283 16.7959 20.1293 16.7959 19.9219C16.7959 19.7144 16.8783 19.5154 17.025 19.3687C17.1717 19.2221 17.3707 19.1396 17.5781 19.1396C17.7856 19.1396 17.9846 19.2221 18.1313 19.3687L18.9859 20.2234L20.8141 17.1766C20.8668 17.0885 20.9363 17.0117 21.0187 16.9506C21.1011 16.8894 21.1948 16.8451 21.2943 16.8201C21.3939 16.7952 21.4973 16.7901 21.5989 16.8051Z" fill="#00134D"/>
</svg>
