<svg width="30" height="30" viewBox="0 0 30 30" fill="none" xmlns="http://www.w3.org/2000/svg">
<path d="M1.41173 4.56808C0.747479 5.09777 0.282784 5.83733 0.09375 6.66563L15 15.7762L29.9062 6.66563C29.7172 5.83733 29.2525 5.09777 28.5883 4.56808C27.924 4.03838 27.0996 3.74994 26.25 3.75H3.75C2.90041 3.74994 2.07598 4.03838 1.41173 4.56808Z" fill="white"/>
<path d="M0 22.1269V8.80688L10.8806 15.4556L0 22.1269Z" fill="white"/>
<path d="M0.358125 24.105L12.6769 16.5562L15 17.9738L17.3231 16.5544L18.0112 16.9762C17.0672 17.7674 16.3083 18.756 15.788 19.8724C15.2677 20.9888 14.9987 22.2058 15 23.4375C14.9989 24.3955 15.1613 25.3466 15.48 26.25H3.75C3.0395 26.2505 2.34348 26.0492 1.74298 25.6694C1.14248 25.2897 0.662219 24.7471 0.358125 24.105Z" fill="white"/>
<path d="M30 18.1331V8.80688L19.1194 15.4556L19.7531 15.8437C20.9014 15.2869 22.1613 14.9984 23.4375 15C24.696 14.9987 25.9387 15.2794 27.0744 15.8216C28.2101 16.3638 29.2098 17.1537 30 18.1331Z" fill="white"/>
<path fill-rule="evenodd" clip-rule="evenodd" d="M28.0779 28.0779C29.3086 26.8472 30 25.178 30 23.4375C30 21.697 29.3086 20.0278 28.0779 18.7971C26.8472 17.5664 25.178 16.875 23.4375 16.875C21.697 16.875 20.0278 17.5664 18.7971 18.7971C17.5664 20.0278 16.875 21.697 16.875 23.4375C16.875 25.178 17.5664 26.8472 18.7971 28.0779C20.0278 29.3086 21.697 30 23.4375 30C25.178 30 26.8472 29.3086 28.0779 28.0779ZM25.9186 20.1661C26.0404 20.1842 26.1575 20.2261 26.2631 20.2894C26.3688 20.3526 26.4609 20.4361 26.5343 20.535C26.6077 20.6339 26.6609 20.7462 26.6908 20.8657C26.7208 20.9851 26.7269 21.1093 26.7089 21.2311C26.6908 21.3529 26.6489 21.47 26.5856 21.5756L24.0825 25.7494C23.9725 25.9327 23.8221 26.0886 23.6428 26.2051C23.4635 26.3216 23.26 26.3957 23.0478 26.4218C22.8355 26.4478 22.6202 26.4251 22.418 26.3554C22.2159 26.2856 22.0323 26.1707 21.8813 26.0194L20.43 24.57C20.254 24.394 20.1551 24.1552 20.1551 23.9062C20.1551 23.6573 20.254 23.4185 20.43 23.2425C20.606 23.0665 20.8448 22.9676 21.0938 22.9676C21.3427 22.9676 21.5815 23.0665 21.7575 23.2425L22.7831 24.2681L24.9769 20.6119C25.0401 20.5062 25.1236 20.4141 25.2225 20.3407C25.3214 20.2673 25.4337 20.2141 25.5532 20.1842C25.6726 20.1542 25.7968 20.1481 25.9186 20.1661Z" fill="white"/>
</svg>
