<svg width="40" height="40" viewBox="0 0 40 40" fill="none" xmlns="http://www.w3.org/2000/svg">
<path d="M17.5 24.45V18.05C17.5 17.81 17.765 17.66 17.975 17.785L23.3 20.9825C23.3461 21.0103 23.3842 21.0496 23.4106 21.0964C23.437 21.1433 23.4509 21.1962 23.4509 21.25C23.4509 21.3038 23.437 21.3567 23.4106 21.4036C23.3842 21.4504 23.3461 21.4897 23.3 21.5175L17.975 24.7175C17.9272 24.7466 17.8725 24.7623 17.8165 24.7631C17.7606 24.7638 17.7055 24.7495 17.6569 24.7217C17.6084 24.6938 17.5682 24.6535 17.5406 24.6048C17.513 24.5561 17.499 24.5009 17.5 24.445V24.45Z" fill="white"/>
<path d="M23.2325 0H10C8.67392 0 7.40215 0.526784 6.46447 1.46447C5.52678 2.40215 5 3.67392 5 5V35C5 36.3261 5.52678 37.5979 6.46447 38.5355C7.40215 39.4732 8.67392 40 10 40H30C31.3261 40 32.5979 39.4732 33.5355 38.5355C34.4732 37.5979 35 36.3261 35 35V11.7675C34.9999 11.1045 34.7364 10.4687 34.2675 10L25 0.7325C24.5313 0.263627 23.8955 0.000141594 23.2325 0ZM23.75 8.75V3.75L31.25 11.25H26.25C25.587 11.25 24.9511 10.9866 24.4822 10.5178C24.0134 10.0489 23.75 9.41304 23.75 8.75ZM12.5 15H27.5C27.8046 15.0001 28.0987 15.1114 28.3271 15.313C28.5554 15.5147 28.7022 15.7927 28.74 16.095L29.99 26.095C30.012 26.2708 29.9963 26.4493 29.944 26.6187C29.8918 26.788 29.8041 26.9443 29.6868 27.0771C29.5696 27.21 29.4254 27.3164 29.2639 27.3893C29.1024 27.4622 28.9272 27.4999 28.75 27.5H21.25V32.54C23.4075 32.6775 25 33.1675 25 33.75C25 34.44 22.7625 35 20 35C17.2375 35 15 34.44 15 33.75C15 33.1675 16.5925 32.6775 18.75 32.54V27.5H11.25C11.0728 27.4999 10.8976 27.4622 10.7361 27.3893C10.5746 27.3164 10.4304 27.21 10.3132 27.0771C10.1959 26.9443 10.1082 26.788 10.056 26.6187C10.0037 26.4493 9.98803 26.2708 10.01 26.095L11.26 16.095C11.2978 15.7927 11.4446 15.5147 11.673 15.313C11.9013 15.1114 12.1954 15.0001 12.5 15Z" fill="white"/>
</svg>
