<svg width="1439" height="1201" viewBox="0 0 1439 1201" fill="none" xmlns="http://www.w3.org/2000/svg">
<mask id="mask0_149_176" style="mask-type:alpha" maskUnits="userSpaceOnUse" x="0" y="0" width="1439" height="1201">
<g clip-path="url(#clip0_149_176)">
<path d="M1136.75 595.764C1136.75 743.024 929.071 874.542 808.966 874.542C688.86 874.542 -61.5461 358.045 -61.5461 210.785C-61.5461 63.5248 1016.64 266.255 1136.75 266.255C1256.85 266.255 1136.75 448.504 1136.75 595.764Z" fill="url(#paint0_linear_149_176)"/>
<path d="M1221.84 1310.95C1221.84 1458.21 1124.48 1577.58 1004.37 1577.58C884.268 1577.58 215.176 1543.26 215.176 1396C215.176 1248.74 217.383 862.416 337.489 862.416C654.746 1031.75 911.783 783.609 1121.87 877.986C1300.25 958.116 1184.88 1202.41 1221.84 1310.95Z" fill="url(#paint1_radial_149_176)"/>
<path d="M1468.54 680.324C1792.6 973.012 1642.91 825.924 1921.25 818.514C1964.92 826.925 2039.04 827.325 1986.23 761.634C1920.21 679.519 1941.49 621.521 1858.99 532.057C1776.48 442.593 1726.24 351.699 1601.68 209.409C1477.13 67.1192 1467.55 184.413 1327.13 173.294C1186.71 162.175 1250.75 179.832 1057.01 386.289C863.264 592.746 1144.47 387.635 1468.54 680.324Z" fill="#D9D9D9"/>
<path d="M1162.59 1140.71C728.913 1191.76 938.189 1176.01 760.43 1390.32C725.341 1417.64 676.216 1473.15 760.43 1476.68C865.698 1481.09 895.325 1535.3 1016.98 1532.15C1138.64 1529 1240.13 1551.06 1429.23 1551.06C1618.33 1551.06 1536.39 1466.6 1637.25 1368.26C1738.1 1269.93 1682.63 1306.49 1654.9 1024.72C1627.16 742.956 1596.27 1089.65 1162.59 1140.71Z" fill="#D9D9D9"/>
</g>
</mask>
<g mask="url(#mask0_149_176)">
<line y1="1057.46" x2="1511.58" y2="1057.46" stroke="#353336" stroke-opacity="0.11" stroke-width="1.2607"/>
<line y1="734.719" x2="1511.58" y2="734.719" stroke="#353336" stroke-opacity="0.11" stroke-width="1.2607"/>
<line y1="411.979" x2="1511.58" y2="411.979" stroke="#353336" stroke-opacity="0.11" stroke-width="1.2607"/>
<line y1="896.087" x2="1511.58" y2="896.087" stroke="#353336" stroke-opacity="0.11" stroke-width="1.2607"/>
<line y1="573.349" x2="1511.58" y2="573.349" stroke="#353336" stroke-opacity="0.11" stroke-width="1.2607"/>
<line y1="250.611" x2="1511.58" y2="250.611" stroke="#353336" stroke-opacity="0.11" stroke-width="1.2607"/>
<line y1="976.772" x2="1511.58" y2="976.772" stroke="#353336" stroke-opacity="0.11" stroke-width="1.2607"/>
<line y1="654.034" x2="1511.58" y2="654.034" stroke="#353336" stroke-opacity="0.11" stroke-width="1.2607"/>
<line y1="331.296" x2="1511.58" y2="331.296" stroke="#353336" stroke-opacity="0.11" stroke-width="1.2607"/>
<line y1="815.402" x2="1511.58" y2="815.402" stroke="#353336" stroke-opacity="0.11" stroke-width="1.2607"/>
<line y1="1138.14" x2="1511.58" y2="1138.14" stroke="#353336" stroke-opacity="0.11" stroke-width="1.2607"/>
<line y1="492.664" x2="1511.58" y2="492.664" stroke="#353336" stroke-opacity="0.11" stroke-width="1.2607"/>
<line y1="169.926" x2="1511.58" y2="169.926" stroke="#353336" stroke-opacity="0.11" stroke-width="1.2607"/>
<line x1="47.2753" y1="383.615" x2="47.2753" y2="1551.02" stroke="#353336" stroke-opacity="0.11" stroke-width="1.2607"/>
<line x1="692.756" y1="383.615" x2="692.756" y2="1551.02" stroke="#353336" stroke-opacity="0.11" stroke-width="1.2607"/>
<line x1="370.016" y1="383.615" x2="370.016" y2="1551.02" stroke="#353336" stroke-opacity="0.11" stroke-width="1.2607"/>
<line x1="1015.49" y1="383.615" x2="1015.49" y2="1551.02" stroke="#353336" stroke-opacity="0.11" stroke-width="1.2607"/>
<line x1="1338.23" y1="383.615" x2="1338.23" y2="1551.02" stroke="#353336" stroke-opacity="0.11" stroke-width="1.2607"/>
<line x1="208.645" y1="383.615" x2="208.645" y2="1551.02" stroke="#353336" stroke-opacity="0.11" stroke-width="1.2607"/>
<line x1="854.122" y1="383.615" x2="854.122" y2="1551.02" stroke="#353336" stroke-opacity="0.11" stroke-width="1.2607"/>
<line x1="531.386" y1="383.615" x2="531.386" y2="1551.02" stroke="#353336" stroke-opacity="0.11" stroke-width="1.2607"/>
<line x1="1176.86" y1="383.615" x2="1176.86" y2="1551.02" stroke="#353336" stroke-opacity="0.11" stroke-width="1.2607"/>
<line x1="127.963" y1="383.615" x2="127.963" y2="1551.02" stroke="#353336" stroke-opacity="0.11" stroke-width="1.2607"/>
<line x1="773.439" y1="383.615" x2="773.439" y2="1551.02" stroke="#353336" stroke-opacity="0.11" stroke-width="1.2607"/>
<line x1="450.699" y1="383.615" x2="450.698" y2="1551.02" stroke="#353336" stroke-opacity="0.11" stroke-width="1.2607"/>
<line x1="1096.18" y1="383.615" x2="1096.18" y2="1551.02" stroke="#353336" stroke-opacity="0.11" stroke-width="1.2607"/>
<line x1="1418.92" y1="383.615" x2="1418.92" y2="1551.02" stroke="#353336" stroke-opacity="0.11" stroke-width="1.2607"/>
<line x1="289.333" y1="383.615" x2="289.333" y2="1551.02" stroke="#353336" stroke-opacity="0.11" stroke-width="1.2607"/>
<line x1="934.809" y1="383.615" x2="934.809" y2="1551.02" stroke="#353336" stroke-opacity="0.11" stroke-width="1.2607"/>
<line x1="612.069" y1="383.615" x2="612.069" y2="1551.02" stroke="#353336" stroke-opacity="0.11" stroke-width="1.2607"/>
<line x1="1257.55" y1="383.615" x2="1257.55" y2="1551.02" stroke="#353336" stroke-opacity="0.11" stroke-width="1.2607"/>
</g>
<defs>
<linearGradient id="paint0_linear_149_176" x1="457.861" y1="284.536" x2="912.343" y2="526.59" gradientUnits="userSpaceOnUse">
<stop stop-color="white"/>
<stop offset="1" stop-color="white" stop-opacity="0"/>
</linearGradient>
<radialGradient id="paint1_radial_149_176" cx="0" cy="0" r="1" gradientUnits="userSpaceOnUse" gradientTransform="translate(534.133 1317.2) rotate(-29.3932) scale(777.019 1335.47)">
<stop stop-color="white"/>
<stop offset="1" stop-color="white" stop-opacity="0"/>
</radialGradient>
<clipPath id="clip0_149_176">
<rect width="1439" height="1201" fill="white"/>
</clipPath>
</defs>
</svg>
