<svg width="40" height="40" viewBox="0 0 40 40" fill="none" xmlns="http://www.w3.org/2000/svg">
<g clip-path="url(#clip0_6_93)">
<path d="M5.00001 15C4.99993 12.523 5.61325 10.0846 6.78521 7.9024C7.95716 5.72022 9.65128 3.86223 11.7163 2.49433C13.7813 1.12642 16.1529 0.291185 18.6193 0.0631927C21.0858 -0.1648 23.5703 0.22155 25.8511 1.18774C28.1318 2.15394 30.1378 3.6699 31.6899 5.60027C33.242 7.53065 34.292 9.81534 34.7459 12.2504C35.1999 14.6854 35.0438 17.1949 34.2916 19.5549C33.5393 21.9149 32.2144 24.0518 30.435 25.775C29.9275 26.265 29.5375 26.775 29.3025 27.3225L27.3975 31.745C27.3008 31.9691 27.1407 32.1601 26.9368 32.2942C26.7328 32.4284 26.4941 32.4999 26.25 32.5C26.5815 32.5 26.8995 32.6317 27.1339 32.8661C27.3683 33.1005 27.5 33.4185 27.5 33.75C27.5 34.0815 27.3683 34.3995 27.1339 34.6339C26.8995 34.8683 26.5815 35 26.25 35C26.5815 35 26.8995 35.1317 27.1339 35.3661C27.3683 35.6005 27.5 35.9185 27.5 36.25C27.5 36.5815 27.3683 36.8995 27.1339 37.1339C26.8995 37.3683 26.5815 37.5 26.25 37.5L25.69 38.6175C25.4825 39.0327 25.1636 39.3819 24.7688 39.6261C24.3741 39.8703 23.9192 39.9997 23.455 40H16.545C16.0809 39.9997 15.6259 39.8703 15.2312 39.6261C14.8365 39.3819 14.5175 39.0327 14.31 38.6175L13.75 37.5C13.4185 37.5 13.1005 37.3683 12.8661 37.1339C12.6317 36.8995 12.5 36.5815 12.5 36.25C12.5 35.9185 12.6317 35.6005 12.8661 35.3661C13.1005 35.1317 13.4185 35 13.75 35C13.4185 35 13.1005 34.8683 12.8661 34.6339C12.6317 34.3995 12.5 34.0815 12.5 33.75C12.5 33.4185 12.6317 33.1005 12.8661 32.8661C13.1005 32.6317 13.4185 32.5 13.75 32.5C13.5055 32.5004 13.2662 32.4291 13.0618 32.2949C12.8574 32.1607 12.6968 31.9695 12.6 31.745L10.6975 27.32C10.4251 26.7356 10.0403 26.2106 9.56501 25.775C8.11907 24.3779 6.96958 22.7037 6.18524 20.8524C5.4009 19.001 4.99779 17.0106 5.00001 15V15ZM20 2.49999C17.5104 2.49956 15.0774 3.24256 13.0128 4.63377C10.9482 6.02497 9.34603 8.00099 8.41165 10.3086C7.47728 12.6162 7.25326 15.1502 7.7683 17.586C8.28335 20.0217 9.51399 22.2482 11.3025 23.98C11.96 24.615 12.5875 25.39 12.9925 26.3325L14.575 30H25.43L27.01 26.3325C27.415 25.39 28.0425 24.615 28.7 23.98C30.4887 22.248 31.7194 20.0213 32.2343 17.5854C32.7493 15.1494 32.5251 12.6151 31.5904 10.3074C30.6557 7.99973 29.0532 6.02373 26.9882 4.63272C24.9232 3.24171 22.4898 2.49907 20 2.49999V2.49999Z" fill="white"/>
</g>
<defs>
<clipPath id="clip0_6_93">
<rect width="40" height="40" fill="white"/>
</clipPath>
</defs>
</svg>
