<svg width="40" height="40" viewBox="0 0 40 40" fill="none" xmlns="http://www.w3.org/2000/svg">
<path d="M32.5 6.25C32.5 5.25544 32.8951 4.30161 33.5983 3.59835C34.3016 2.89509 35.2554 2.5 36.25 2.5C37.2446 2.5 38.1984 2.89509 38.9017 3.59835C39.6049 4.30161 40 5.25544 40 6.25V33.75C40 34.7446 39.6049 35.6984 38.9017 36.4017C38.1984 37.1049 37.2446 37.5 36.25 37.5C35.2554 37.5 34.3016 37.1049 33.5983 36.4017C32.8951 35.6984 32.5 34.7446 32.5 33.75V6.25ZM30 8.06C24.8325 10.435 18.6525 11.7625 12.5 12.2V27.7925C13.4081 27.8437 14.315 27.9146 15.22 28.005C20.3525 28.515 25.315 29.675 30 31.905V8.06ZM10 27.6625V12.335C8.3 12.4025 6.5025 12.4425 4.98 12.4675C3.65585 12.4858 2.39189 13.0236 1.46041 13.9649C0.528925 14.9062 0.00446196 16.1757 0 17.5L0 22.5C0 25.265 2.24 27.49 4.985 27.5225C5.39836 27.5277 5.81169 27.5343 6.225 27.5425C7.48376 27.5676 8.74218 27.6076 10 27.6625V27.6625ZM13.475 30.365C14.1875 30.4175 14.8975 30.4825 15.6 30.56L16.2325 34.785C16.3013 35.1466 16.2895 35.5189 16.1978 35.8753C16.1061 36.2318 15.9368 36.5636 15.7021 36.8471C15.4673 37.1305 15.1729 37.3587 14.8397 37.5152C14.5066 37.6717 14.1431 37.7527 13.775 37.7525H12.405C11.9191 37.7525 11.4437 37.6108 11.0369 37.3448C10.6302 37.0789 10.3099 36.7002 10.115 36.255L6.83 30.055C8.24063 30.0902 9.65074 30.1435 11.06 30.215C11.8775 30.2575 12.685 30.3075 13.475 30.365V30.365Z" fill="white"/>
</svg>
