<svg width="15" height="15" viewBox="0 0 15 15" fill="none" xmlns="http://www.w3.org/2000/svg">
<g clip-path="url(#clip0_140_45)">
<path d="M4.37499 3.75C4.37499 2.02411 5.7741 0.625 7.49999 0.625C9.22588 0.625 10.625 2.02411 10.625 3.75V3.75731M4.37499 3.75C4.76737 3.74255 5.20794 3.75 5.7252 3.75H9.27478C9.78875 3.75 10.2344 3.75 10.625 3.75731M4.37499 3.75C3.3007 3.77041 2.63639 3.85413 2.11998 4.13923C1.51929 4.47085 1.04497 4.99065 0.769396 5.61776M0.769396 5.61776L3.00474 7.8531C5.08807 9.93643 6.12974 10.9781 7.42415 10.9781C8.71857 10.9781 9.76024 9.93643 11.8436 7.85309L14.114 5.58266C14.1363 5.5604 14.1608 5.54057 14.1873 5.5235V5.5235M0.769396 5.61776C0.760909 5.63707 0.75261 5.65648 0.744502 5.676C0.435513 6.41969 0.542271 7.38052 0.755786 9.30216C0.930548 10.875 1.01793 11.6614 1.38074 12.2549C1.70034 12.7777 2.16658 13.195 2.72148 13.455C3.3514 13.75 4.14267 13.75 5.7252 13.75H9.27478C10.8573 13.75 11.6486 13.75 12.2785 13.455C12.8334 13.195 13.2996 12.7777 13.6192 12.2549C13.9821 11.6614 14.0694 10.875 14.2442 9.30216C14.4577 7.38052 14.5645 6.41969 14.2555 5.676C14.2341 5.62446 14.2113 5.57361 14.1873 5.5235M10.625 3.75731C11.7037 3.7775 12.3624 3.85347 12.88 4.13923C13.4503 4.45409 13.9067 4.93859 14.1873 5.5235" stroke="#2D264B" stroke-width="1.5"/>
</g>
<defs>
<clipPath id="clip0_140_45">
<rect width="15" height="15" fill="white"/>
</clipPath>
</defs>
</svg>
