<svg width="40" height="40" viewBox="0 0 40 40" fill="none" xmlns="http://www.w3.org/2000/svg">
<path d="M7.78 9.1125C7.72944 8.59192 7.78834 8.06652 7.95291 7.57006C8.11748 7.07359 8.38409 6.61704 8.7356 6.22975C9.08711 5.84245 9.51576 5.53296 9.99399 5.32118C10.4722 5.10939 10.9895 4.99999 11.5125 5H17.5C17.8315 5 18.1495 5.1317 18.3839 5.36612C18.6183 5.60054 18.75 5.91848 18.75 6.25V7.205C18.75 8.945 17.5075 10.16 16.57 10.8775C16.4572 10.9577 16.3598 11.0576 16.2825 11.1725C16.27 11.192 16.2599 11.213 16.2525 11.235L16.25 11.25V11.2575L16.2575 11.2825C16.2675 11.3075 16.2925 11.3525 16.3475 11.415C16.5388 11.619 16.7681 11.7838 17.0225 11.9C17.725 12.25 18.775 12.5 20 12.5C21.23 12.5 22.28 12.25 22.975 11.9C23.2303 11.7841 23.4605 11.6193 23.6525 11.415C23.6892 11.3749 23.7196 11.3293 23.7425 11.28L23.75 11.255V11.235C23.7426 11.213 23.7326 11.192 23.72 11.1725C23.6427 11.0576 23.5453 10.9577 23.4325 10.8775C22.495 10.16 21.2525 8.945 21.2525 7.205V6.25C21.2525 5.91891 21.3839 5.60135 21.6177 5.367C21.8516 5.13265 22.1689 5.00066 22.5 5H28.4875C29.0105 4.99999 29.5278 5.10939 30.006 5.32118C30.4842 5.53296 30.9129 5.84245 31.2644 6.22975C31.6159 6.61704 31.8825 7.07359 32.0471 7.57006C32.2117 8.06652 32.2706 8.59192 32.22 9.1125L31.6125 16.25H32.205C32.6925 16.25 33.255 15.8825 33.8925 15.05C34.4175 14.365 35.2125 13.75 36.25 13.75C37.67 13.75 38.6175 14.8675 39.135 15.905C39.6925 17.0175 40 18.4675 40 20C40 21.5325 39.6925 22.9825 39.135 24.095C38.6175 25.1325 37.67 26.25 36.25 26.25C35.2125 26.25 34.4175 25.635 33.8925 24.95C33.255 24.1175 32.6925 23.75 32.205 23.75H31.6125L32.22 30.8875C32.2706 31.4081 32.2117 31.9335 32.0471 32.4299C31.8825 32.9264 31.6159 33.383 31.2644 33.7703C30.9129 34.1576 30.4842 34.467 30.006 34.6788C29.5278 34.8906 29.0105 35 28.4875 35H22.5C22.1685 35 21.8505 34.8683 21.6161 34.6339C21.3817 34.3995 21.25 34.0815 21.25 33.75V32.795C21.25 31.055 22.4925 29.84 23.43 29.1225C23.5428 29.0423 23.6402 28.9424 23.7175 28.8275C23.73 28.808 23.7401 28.787 23.7475 28.765L23.75 28.75V28.7425L23.7425 28.7175C23.7193 28.6691 23.689 28.6244 23.6525 28.585C23.4612 28.3809 23.2319 28.2162 22.9775 28.1C22.275 27.75 21.225 27.5 20 27.5C18.7725 27.5 17.72 27.75 17.025 28.1C16.7697 28.2159 16.5395 28.3807 16.3475 28.585C16.3108 28.6252 16.2805 28.6707 16.2575 28.72L16.25 28.745V28.75L16.2525 28.765C16.2599 28.787 16.27 28.808 16.2825 28.8275C16.3225 28.895 16.4075 28.9975 16.57 29.1225C17.5075 29.84 18.75 31.055 18.75 32.795V33.75C18.75 34.0815 18.6183 34.3995 18.3839 34.6339C18.1495 34.8683 17.8315 35 17.5 35H11.5125C10.9895 35 10.4722 34.8906 9.99399 34.6788C9.51576 34.467 9.08711 34.1576 8.7356 33.7703C8.38409 33.383 8.11748 32.9264 7.95291 32.4299C7.78834 31.9335 7.72944 31.4081 7.78 30.8875L8.39 23.75H7.795C7.3075 23.75 6.745 24.1175 6.1075 24.95C5.5825 25.635 4.7875 26.25 3.75 26.25C2.33 26.25 1.3825 25.1325 0.865 24.095C0.3075 22.9825 0 21.5325 0 20C0 18.4675 0.3075 17.0175 0.865 15.905C1.3825 14.8675 2.33 13.75 3.75 13.75C4.7875 13.75 5.5825 14.365 6.1075 15.05C6.745 15.8825 7.3075 16.25 7.795 16.25H8.39L7.78 9.1125Z" fill="white"/>
</svg>
