<svg width="40" height="40" viewBox="0 0 40 40" fill="none" xmlns="http://www.w3.org/2000/svg">
<g clip-path="url(#clip0_50_70)">
<path d="M35.3 25.4075L39.5875 27.5525C40.1375 27.8275 40.1375 28.6125 39.5875 28.8875L20.6675 38.35C20.4602 38.4535 20.2317 38.5073 20 38.5073C19.7683 38.5073 19.5398 38.4535 19.3325 38.35L0.412502 28.8875C0.288906 28.8252 0.185033 28.7298 0.112458 28.612C0.0398824 28.4941 0.00145387 28.3584 0.00145387 28.22C0.00145387 28.0816 0.0398824 27.9459 0.112458 27.8281C0.185033 27.7102 0.288906 27.6148 0.412502 27.5525L4.7025 25.4075L17.995 32.055C19.2575 32.685 20.745 32.685 22.005 32.055L35.2975 25.405L35.3 25.4075ZM19.3325 0.157534C19.5398 0.0540906 19.7683 0.000244141 20 0.000244141C20.2317 0.000244141 20.4602 0.0540906 20.6675 0.157534L39.5875 9.61753C39.711 9.68023 39.8147 9.7759 39.8872 9.89394C39.9596 10.012 39.998 10.1478 39.998 10.2863C39.998 10.4248 39.9596 10.5606 39.8872 10.6786C39.8147 10.7967 39.711 10.8923 39.5875 10.955L20.6675 20.4125C20.4602 20.516 20.2317 20.5698 20 20.5698C19.7683 20.5698 19.5398 20.516 19.3325 20.4125L0.412502 10.955C0.288251 10.893 0.183743 10.7975 0.110698 10.6794C0.0376542 10.5613 -0.0010376 10.4252 -0.0010376 10.2863C-0.0010376 10.1474 0.0376542 10.0113 0.110698 9.89314C0.183743 9.77502 0.288251 9.67958 0.412502 9.61753L19.3325 0.157534Z" fill="white"/>
<path d="M35.3 16.44L39.5875 18.585C40.1375 18.86 40.1375 19.645 39.5875 19.92L20.6675 29.38C20.4602 29.4835 20.2317 29.5373 20 29.5373C19.7683 29.5373 19.5398 29.4835 19.3325 29.38L0.412502 19.92C0.288906 19.8577 0.185033 19.7623 0.112458 19.6445C0.0398824 19.5266 0.00145387 19.3909 0.00145387 19.2525C0.00145387 19.1141 0.0398824 18.9784 0.112458 18.8606C0.185033 18.7427 0.288906 18.6473 0.412502 18.585L4.7025 16.44L17.995 23.0875C19.2575 23.7175 20.745 23.7175 22.005 23.0875L35.3 16.44Z" fill="white"/>
</g>
<defs>
<clipPath id="clip0_50_70">
<rect width="40" height="40" fill="white"/>
</clipPath>
</defs>
</svg>
