<svg width="30" height="30" viewBox="0 0 30 30" fill="none" xmlns="http://www.w3.org/2000/svg">
<g clip-path="url(#clip0_31_89)">
<path fill-rule="evenodd" clip-rule="evenodd" d="M3.5344 0.958034C3.86248 0.63045 4.25643 0.376331 4.69015 0.212515C5.12386 0.0486998 5.58744 -0.0210708 6.05016 0.00782712C6.51289 0.036725 6.96418 0.163632 7.37415 0.380137C7.78411 0.596642 8.14338 0.897802 8.42815 1.26366L11.7938 5.58741C12.4107 6.38053 12.6282 7.41366 12.3844 8.38866L11.3588 12.4949C11.3058 12.7076 11.3086 12.9304 11.3671 13.1416C11.4256 13.3529 11.5377 13.5454 11.6925 13.7005L16.2994 18.3074C16.4547 18.4626 16.6476 18.5749 16.8592 18.6334C17.0708 18.6918 17.2939 18.6945 17.5069 18.6412L21.6113 17.6155C22.0924 17.4952 22.5946 17.4859 23.0799 17.5882C23.5652 17.6905 24.0209 17.9018 24.4125 18.2062L28.7363 21.5699C30.2907 22.7793 30.4332 25.0762 29.0419 26.4655L27.1032 28.4043C25.7157 29.7918 23.6419 30.4012 21.7088 29.7205C16.761 27.9796 12.2687 25.1471 8.56503 21.433C4.8512 17.7299 2.01867 13.2383 0.277528 8.29116C-0.401221 6.35991 0.208154 4.28428 1.59565 2.89678L3.5344 0.958034Z" fill="white"/>
</g>
<defs>
<clipPath id="clip0_31_89">
<rect width="30" height="30" fill="white"/>
</clipPath>
</defs>
</svg>
